HIERARCHY
ROOT Hips
{
 OFFSET 0.000000 0.000000 0.000000
 CHANNELS 6 Xposition Yposition Zposition Yrotation Xrotation Zrotation
 JOINT Chest
 {
  OFFSET 0.000000 9.581000 -0.001100
  CHANNELS 3 Yrotation Xrotation Zrotation
  JOINT Chest2
  {
   OFFSET 0.000000 9.561100 0.002200
   CHANNELS 3 Yrotation Xrotation Zrotation
   JOINT Chest3
   {
    OFFSET 0.000000 9.521100 0.000000
    CHANNELS 3 Yrotation Xrotation Zrotation
    JOINT Chest4
    {
     OFFSET 0.000000 9.511400 0.000000
     CHANNELS 3 Yrotation Xrotation Zrotation
     JOINT Neck
     {
      OFFSET 0.000000 14.375100 0.000000
      CHANNELS 3 Yrotation Xrotation Zrotation
      JOINT Head
      {
       OFFSET 0.000000 8.901200 0.004600
       CHANNELS 3 Yrotation Xrotation Zrotation
       End Site
       {
        OFFSET 0.000000 16.962200 0.002400
       }
      }
     }
     JOINT RightCollar
     {
      OFFSET -2.920100 9.518800 0.000000
      CHANNELS 3 Yrotation Xrotation Zrotation
      JOINT RightShoulder
      {
       OFFSET -13.664500 0.000000 0.000000
       CHANNELS 3 Yrotation Xrotation Zrotation
       JOINT RightElbow
       {
        OFFSET 0.000000 -29.999200 0.000000
        CHANNELS 3 Yrotation Xrotation Zrotation
        JOINT RightWrist
        {
         OFFSET 0.000000 -24.253600 0.000000
         CHANNELS 3 Yrotation Xrotation Zrotation
         End Site
         {
          OFFSET 0.000000 -17.918900 0.000000
         }
        }
       }
      }
     }
     JOINT LeftCollar
     {
      OFFSET 2.920100 9.518800 0.000000
      CHANNELS 3 Yrotation Xrotation Zrotation
      JOINT LeftShoulder
      {
       OFFSET 13.664500 0.000000 0.000000
       CHANNELS 3 Yrotation Xrotation Zrotation
       JOINT LeftElbow
       {
        OFFSET 0.000000 -29.999200 0.000000
        CHANNELS 3 Yrotation Xrotation Zrotation
        JOINT LeftWrist
        {
         OFFSET 0.000000 -24.253600 0.000000
         CHANNELS 3 Yrotation Xrotation Zrotation
         End Site
         {
          OFFSET 0.000000 -17.918900 0.000000
         }
        }
       }
      }
     }
    }
   }
  }
 }
 JOINT RightHip
 {
  OFFSET -7.797300 0.005300 0.000500
  CHANNELS 3 Yrotation Xrotation Zrotation
  JOINT RightKnee
  {
   OFFSET 0.000000 -40.663400 -0.000500
   CHANNELS 3 Yrotation Xrotation Zrotation
   JOINT RightAnkle
   {
    OFFSET 0.000000 -39.523700 -0.000900
    CHANNELS 3 Yrotation Xrotation Zrotation
    JOINT RightToe
    {
     OFFSET 0.000000 -6.418000 14.485300
     CHANNELS 3 Yrotation Xrotation Zrotation
     End Site
     {
      OFFSET 0.000000 -1.465200 6.326400
     }
    }
   }
  }
 }
 JOINT LeftHip
 {
  OFFSET 7.797300 0.005300 0.000500
  CHANNELS 3 Yrotation Xrotation Zrotation
  JOINT LeftKnee
  {
   OFFSET 0.000000 -40.663400 -0.000500
   CHANNELS 3 Yrotation Xrotation Zrotation
   JOINT LeftAnkle
   {
    OFFSET 0.000000 -39.523700 -0.000900
    CHANNELS 3 Yrotation Xrotation Zrotation
    JOINT LeftToe
    {
     OFFSET 0.000000 -6.418000 14.485300
     CHANNELS 3 Yrotation Xrotation Zrotation
     End Site
     {
      OFFSET 0.000000 -1.465200 6.326400
     }
    }
   }
  }
 }
}
MOTION
Frames: 16
Frame Time: 0.008333
-15.336909 126.877590 16.925245 -179.896809 -46.879344 -6.118763 3.137020 27.062088 3.103362 0.426049 4.721548 0.419765 0.697730 7.468943 0.724873 2.401966 22.063583 2.392180 -3.001052 18.009036 1.090694 -3.431860 -6.701460 1.841586 1.542923 2.666163 3.557131 -4.765795 -13.214458 -7.229867 -102.697664 -59.099106 146.804249 -5.591729 -0.513115 -5.525298 -11.387994 -0.042186 -0.027764 -2.668964 -11.665082 9.686560 70.953591 -56.256205 -112.443266 2.408997 -11.648419 6.075179 -19.789449 -8.316632 1.638932 21.536513 80.900054 35.637705 26.512005 -24.554841 18.082304 0.002471 -0.004208 0.001095 13.445234 -14.288770 -5.186387 4.881913 64.307686 -11.513456 3.375568 -2.409429 16.338881 -0.001436 -0.002921 -0.000636
-15.335434 126.878174 16.925750 -179.909380 -46.888288 -6.104396 3.142457 27.066902 3.130132 0.425963 4.723505 0.423784 0.697906 7.473146 0.729076 2.407717 22.065555 2.412435 -2.948964 17.880203 1.029863 -3.360169 -6.846725 1.763953 1.552725 2.608058 3.570009 -4.473657 -13.157540 -7.331670 -102.076781 -59.244143 146.493821 -5.090074 0.596377 -4.496186 -11.408862 -0.082812 -0.019415 -2.842156 -11.684766 9.723232 70.826371 -56.267211 -112.451053 2.242784 -11.171439 5.281416 -19.779104 -8.314372 1.640615 21.615322 80.889738 35.709893 26.497477 -24.542698 18.082351 0.001574 -0.002656 0.000697 13.446971 -14.273765 -5.186946 4.871642 64.303243 -11.528984 3.378155 -2.418700 16.337480 -0.000417 -0.001152 -0.000185
-15.333504 126.879169 16.925943 -179.945915 -46.902057 -6.075665 3.163125 27.075752 3.185083 0.428080 4.727962 0.432331 0.695380 7.477564 0.701925 2.415694 22.068463 2.433246 -2.895798 17.748302 0.969326 -3.287530 -6.994942 1.686537 1.560754 2.548155 3.585333 -4.186137 -13.110497 -7.438551 -101.545074 -59.403372 146.244285 -4.541318 1.711171 -3.408938 -11.435235 -0.129746 -0.004873 -3.011982 -11.707032 9.756656 70.700543 -56.273464 -112.457407 2.060067 -10.702589 4.486166 -19.752227 -8.306539 1.653474 21.565660 80.893957 35.654244 26.473919 -24.548482 18.090502 0.001799 -0.001157 0.000797 13.458064 -14.249959 -5.179100 4.866566 64.291167 -11.548158 3.375273 -2.430106 16.338618 0.000252 0.002032 0.000112
-15.331451 126.879191 16.927025 -179.951256 -46.905184 -6.070645 3.168049 27.079566 3.214654 0.428072 4.729759 0.428010 0.700587 7.483923 0.717904 2.425353 22.072480 2.455163 -2.842050 17.614694 0.908125 -3.214115 -7.144650 1.608469 1.568789 2.484225 3.601872 -3.901811 -13.070938 -7.550742 -101.098140 -59.576695 146.052400 -3.944551 2.838335 -2.272965 -11.466907 -0.183014 0.016373 -3.175899 -11.731109 9.785562 70.574461 -56.268843 -112.465133 1.856863 -10.221405 3.690724 -19.749219 -8.305064 1.658848 21.564323 80.893970 35.650895 26.469315 -24.546710 18.089330 0.003042 -0.000766 0.001348 13.456782 -14.240700 -5.174786 4.857770 64.284965 -11.563313 3.370696 -2.439799 16.341608 0.001392 0.003621 0.000617
-15.329676 126.879237 16.927949 -179.965546 -46.908996 -6.057348 3.180459 27.085015 3.245070 0.429399 4.733299 0.432462 0.702876 7.489047 0.724995 2.434065 22.076831 2.476625 -2.785505 17.482090 0.845512 -3.137427 -7.292971 1.528346 1.578197 2.416214 3.620080 -3.615906 -13.034628 -7.665962 -100.732395 -59.767692 145.908521 -3.295739 3.981417 -1.100198 -11.501087 -0.223685 0.004396 -3.341419 -11.770563 9.851465 70.448262 -56.245571 -112.475891 1.630364 -9.694033 2.889528 -19.739787 -8.303819 1.660128 21.565104 80.893115 35.651367 26.468590 -24.544526 18.086486 0.004259 0.000621 0.001887 13.464848 -14.230987 -5.173236 4.874384 64.276985 -11.556916 3.354463 -2.454170 16.346955 -0.000626 -0.001542 -0.000278
-15.328254 126.879507 16.928537 -179.983181 -46.914304 -6.039292 3.196368 27.093311 3.276155 0.431752 4.737896 0.445509 0.694005 7.486521 0.700239 2.456693 22.085333 2.520375 -2.725264 17.352247 0.780847 -3.056517 -7.438002 1.445324 1.588044 2.346357 3.637411 -3.325928 -12.999643 -7.782873 -100.447427 -59.971500 145.808453 -2.598667 5.139872 0.101824 -11.531626 -0.284085 0.048020 -3.496078 -11.796664 9.857636 70.318140 -56.212468 -112.480194 1.384200 -9.107543 2.077206 -19.726852 -8.300430 1.658712 21.551969 80.893301 35.640885 26.440902 -24.558269 18.087111 -0.000361 -0.004349 -0.000160 13.475657 -14.220588 -5.175177 4.882266 64.270426 -11.555321 3.347491 -2.461978 16.348147 -0.000791 -0.003528 -0.000350
-15.328392 126.879551 16.929037 -179.993954 -46.917369 -6.016639 3.202716 27.100779 3.297518 0.430291 4.739156 0.439445 0.691543 7.486724 0.694268 2.478842 22.091845 2.565748 -2.663069 17.225459 0.714128 -2.973165 -7.579318 1.359812 1.573176 2.306452 3.616992 -3.020884 -12.992996 -7.866019 -100.239906 -60.181624 145.756831 -1.862520 6.317642 1.331092 -11.562889 -0.345159 0.088628 -3.656491 -11.824199 9.862155 70.195835 -56.189067 -112.475981 1.133601 -8.471443 1.251227 -19.721736 -8.306669 1.648870 21.560113 80.898029 35.644529 26.433535 -24.558546 18.086618 0.000581 -0.005116 0.000257 13.481530 -14.205900 -5.190375 4.895106 64.258911 -11.548500 3.342492 -2.470787 16.347839 -0.000619 -0.001039 -0.000274
-15.327021 126.879517 16.929775 179.990413 -46.918544 -5.999368 3.214840 27.103895 3.319845 0.432509 4.742114 0.453610 0.692952 7.492527 0.698413 2.466307 22.087328 2.554262 -2.572096 17.107984 0.676609 -2.886933 -7.716653 1.271205 1.603159 2.229582 3.675039 -2.736123 -12.952777 -8.006105 -100.098669 -60.396486 145.746608 -1.094024 7.513676 2.583522 -11.576895 -0.391930 0.135428 -3.825153 -11.857388 9.884837 70.085877 -56.181452 -112.466286 0.883917 -7.797983 0.415537 -19.712418 -8.310878 1.647814 21.558255 80.895547 35.641654 26.425312 -24.553301 18.086616 -0.000079 -0.006046 -0.000035 13.494077 -14.198909 -5.195411 4.896483 64.252583 -11.549051 3.338220 -2.474630 16.348921 0.000354 0.001587 0.000157
-15.326145 126.879328 16.930545 179.979861 -46.917975 -5.982877 3.218932 27.103784 3.319864 0.438205 4.746439 0.486639 0.694931 7.495425 0.705212 2.476911 22.089286 2.597029 -2.516301 16.985857 0.588979 -2.795088 -7.849080 1.178146 1.607152 2.147916 3.682431 -2.453315 -12.916892 -8.146010 -100.011372 -60.612507 145.767476 -0.299642 8.714353 3.842938 -11.615191 -0.434889 0.099120 -3.992691 -11.910193 9.944094 69.976268 -56.186024 -112.452848 0.624947 -7.100077 -0.418303 -19.706844 -8.315852 1.647973 21.518848 80.898135 35.599133 26.417569 -24.554178 18.086860 0.000411 -0.005495 0.000182 13.505952 -14.193579 -5.204154 4.900399 64.244554 -11.548085 3.333422 -2.481453 16.354260 0.001452 -0.000038 0.000644
-15.325244 126.879269 16.931162 179.972703 -46.918101 -5.969232 3.223751 27.106865 3.349834 0.433155 4.744807 0.459692 0.704375 7.502047 0.745233 2.484234 22.087375 2.638158 -2.454782 16.867853 0.497270 -2.697253 -7.976783 1.081280 1.607546 2.083071 3.667221 -2.173570 -12.900886 -8.264435 -99.961764 -60.828942 145.811438 0.515366 9.905863 5.097144 -11.643164 -0.502207 0.119033 -4.146233 -11.941251 9.942676 69.868041 -56.200502 -112.438157 0.352308 -6.399541 -1.237145 -19.700973 -8.318745 1.642055 21.525343 80.892585 35.605405 26.409801 -24.551815 18.087068 -0.002019 -0.006756 -0.000894 13.519406 -14.187255 -5.214197 4.905341 64.237288 -11.544005 3.327170 -2.487123 16.360345 0.000539 -0.000929 0.000239
-15.324517 126.879739 16.931218 179.961928 -46.923039 -5.952257 3.228919 27.106842 3.415643 0.428364 4.748348 0.427833 0.703859 7.504233 0.752363 2.470360 22.089365 2.622099 -2.353130 16.757124 0.454178 -2.595502 -8.101855 0.981401 1.634472 2.020998 3.698397 -1.906485 -12.892933 -8.379944 -99.931290 -61.048559 145.868391 1.348317 11.086449 6.345385 -11.647708 -0.554270 0.183985 -4.299257 -11.973395 9.946065 69.763203 -56.223907 -112.420550 0.068620 -5.717601 -2.033183 -19.691899 -8.314865 1.635567 21.581114 80.882957 35.666051 26.390839 -24.553564 18.078630 0.000755 -0.004721 0.000334 13.533785 -14.177376 -5.226487 4.908052 64.233915 -11.539110 3.325977 -2.496227 16.361011 -0.000043 -0.001604 -0.000019
-15.323361 126.880215 16.931292 179.954066 -46.927588 -5.940471 3.232118 27.109031 3.447001 0.428596 4.750512 0.430227 0.711523 7.506544 0.812529 2.449676 22.091079 2.612241 -2.283637 16.644711 0.357804 -2.489933 -8.224966 0.878439 1.639452 1.959094 3.677883 -1.648405 -12.894508 -8.496226 -99.910816 -61.268033 145.928420 2.199198 12.257829 7.586399 -11.677389 -0.589035 0.141133 -4.456383 -12.029495 10.012082 69.648982 -56.253411 -112.394491 -0.227206 -5.062343 -2.797931 -19.686612 -8.311248 1.632146 21.586716 80.883229 35.673454 26.385239 -24.555872 18.072159 0.003562 -0.003958 0.001578 13.544633 -14.168032 -5.235338 4.915352 64.231305 -11.530840 3.321385 -2.503716 16.362663 -0.000961 -0.000471 -0.000426
-15.323829 126.880872 16.930904 179.940533 -46.935075 -5.915275 3.232875 27.113879 3.467040 0.430972 4.751932 0.437205 0.704764 7.508508 0.793650 2.467746 22.088172 2.681063 -2.209627 16.535510 0.258946 -2.378774 -8.344792 0.773091 1.644590 1.900458 3.656515 -1.393686 -12.905855 -8.617485 -99.908515 -61.486566 145.993778 3.035369 13.403638 8.797502 -11.702811 -0.644868 0.157124 -4.600255 -12.066594 10.018814 69.518889 -56.284838 -112.356963 -0.475981 -4.464052 -3.462344 -19.680703 -8.308686 1.615096 21.619901 80.882241 35.703177 26.385245 -24.557278 18.065953 0.003830 -0.003329 0.001697 13.562936 -14.153978 -5.252416 4.920818 64.228416 -11.524082 3.316235 -2.507403 16.361068 -0.000820 -0.001318 -0.000363
-15.323234 126.880895 16.931184 179.935566 -46.936272 -5.903161 3.229760 27.111994 3.492172 0.429623 4.754636 0.443725 0.701336 7.509756 0.776141 2.475757 22.081508 2.727460 -2.117964 16.430567 0.177304 -2.262004 -8.460596 0.666077 1.657702 1.847483 3.653689 -1.141003 -12.923897 -8.741631 -99.896027 -61.710356 146.038067 3.523735 14.420860 9.776232 -11.719791 -0.691031 0.192961 -4.744166 -12.106851 10.031733 69.363742 -56.294279 -112.282577 -0.598473 -4.029036 -3.963227 -19.678732 -8.307441 1.608648 21.622162 80.880497 35.704639 26.376915 -24.567639 18.057384 0.001025 -0.006041 0.000454 13.571430 -14.149982 -5.261611 4.923147 64.226658 -11.524791 3.313645 -2.505266 16.364928 -0.000965 -0.001361 -0.000428
-15.322274 126.880807 16.931565 179.933987 -46.936113 -5.895987 3.223416 27.109162 3.517806 0.430342 4.752861 0.450176 0.700158 7.504243 0.829940 2.442819 22.091696 2.662090 -2.004844 16.324861 0.129026 -2.139994 -8.573478 0.555837 1.679985 1.794863 3.681937 -0.890219 -12.944312 -8.867153 -99.673815 -61.878563 145.880358 3.384775 15.077354 10.288948 -11.729031 -0.722532 0.240057 -4.891906 -12.153491 10.072695 69.146620 -56.220563 -112.128906 -0.659469 -3.838635 -4.362318 -19.677769 -8.308609 1.604171 21.634408 80.880536 35.716355 26.377331 -24.568771 18.052506 -0.000092 -0.007122 -0.000041 13.577461 -14.148584 -5.267807 4.921754 64.225386 -11.529191 3.312559 -2.500580 16.369392 -0.001174 -0.001263 -0.000520
-15.320772 126.880793 16.931938 179.933054 -46.936088 -5.892586 3.215686 27.106036 3.546291 0.426451 4.748675 0.493388 0.696030 7.510778 0.774448 2.442926 22.090088 2.672047 -1.890008 16.220601 0.079772 -2.013733 -8.683679 0.441815 1.686041 1.772694 3.679449 -0.632733 -12.984456 -8.968941 -99.046613 -61.868547 145.362620 2.970766 15.184996 10.411000 -11.737416 -0.750496 0.283066 -5.034887 -12.190794 10.120599 68.860907 -56.027942 -111.920925 -0.738755 -3.804669 -4.733713 -19.678646 -8.307220 1.603091 21.657348 80.879345 35.740835 26.376610 -24.570278 18.044283 0.000754 -0.007481 0.000334 13.583923 -14.146834 -5.272181 4.918385 64.224548 -11.530488 3.311835 -2.499668 16.371716 -0.000837 -0.000196 -0.000371
